Music_Gym_Ch0::
	tempo 138
	volume 7, 7
	duty 3
	vibrato 8, 2, 2
	toggleperfectpitch
	notetype 12, 11, 5
	octave 2
	E_ 4
	E_ 4
	E_ 4
	E_ 2
	E_ 2
	octave 3
	C# 4
	C# 4
	C# 4
	C# 2
	octave 2
	E_ 2
	G# 4
	G# 4
	G# 4
	G# 2
	A_ 2
	A_ 2
	A_ 2
	A_ 2
	G# 2
	A_ 2
	A_ 2
	A_ 2
	E_ 2
	loopchannel 0, Music_Gym_Ch0

Music_Gym_Ch1::
	endchannel

Music_Gym_Ch2::
	notetype 12, 1, 1
	rest 16
	rest 16
	rest 16
	rest 16
	rest 16
	rest 16
	rest 16
	rest 16
	octave 4
	E_ 4
	G# 4
	E_ 4
	G# 4
	E_ 4
	G# 4
	E_ 4
	G# 4
	D# 4
	G# 4
	D# 4
	G# 2
	D# 2
	E_ 2
	E_ 2
	E_ 2
	D# 2
	E_ 2
	E_ 2
	E_ 2
	D# 2
	E_ 4
	G# 4
	E_ 4
	G# 4
	E_ 4
	G# 4
	E_ 4
	G# 4
	D# 4
	G# 4
	D# 4
	G# 2
	D# 2
	E_ 2
	E_ 2
	E_ 2
	D# 2
	E_ 2
	E_ 2
	E_ 2
	D# 2
	loopchannel 0, Music_Gym_Ch2
