Music_GymLeaderBattle_Ch0::
	tempo 130
	volume 7, 7
	duty 0
	notetype 12, 2, 12
	octave 2
	B_ 1
	B_ 1
	B_ 1
	B_ 1
	B_ 1
    rest 1
	B_ 1
	B_ 1
	B_ 1
	B_ 1
	B_ 1
	B_ 1
	B_ 1
	rest 1
	octave 3
	E_ 1
	E_ 1
	E_ 1
	E_ 1
	E_ 1
	E_ 1
	E_ 1
	rest 1
	D_ 1
	D_ 1
	D_ 1
	D_ 1
	D_ 1
	D_ 1
	D_ 1
	rest 1
	octave 2
	A_ 2
	B_ 1
	B_ 1
	B_ 1
	B_ 1
	B_ 1
    rest 1
	B_ 1
	B_ 1
	B_ 1
	B_ 1
	B_ 1
	B_ 1
	B_ 1
	rest 1
	octave 3
	E_ 2
	octave 2
	B_ 1
	B_ 1
	B_ 1
	B_ 1
	B_ 1
    rest 1
	B_ 1
	B_ 1
	B_ 1
	B_ 1
	B_ 1
	B_ 1
	B_ 1
	rest 1
	B_ 2
	octave 3
	E_ 2
	loopchannel 0, Music_GymLeaderBattle_Ch0
	


Music_GymLeaderBattle_Ch1::
    tempo 130
    duty 3
    volume 7, 7
	notetype 12, 6, 10
	octave 1
	B_ 1
	B_ 1
	B_ 1
	B_ 1
	B_ 1
    rest 1
	B_ 1
	B_ 1
	B_ 1
	B_ 1
	B_ 1
	B_ 1
	B_ 1
	rest 1
	octave 2
	E_ 1
	E_ 1
	E_ 1
	E_ 1
	E_ 1
	E_ 1
	E_ 1
	rest 1
	D_ 1
	D_ 1
	D_ 1
	D_ 1
	D_ 1
	D_ 1
	D_ 1
	rest 1
	octave 1
	A_ 2
	B_ 1
	B_ 1
	B_ 1
	B_ 1
	B_ 1
    rest 1
	B_ 1
	B_ 1
	B_ 1
	B_ 1
	B_ 1
	B_ 1
	B_ 1
	rest 1
	octave 2
	E_ 2
	octave 1
	B_ 1
	B_ 1
	B_ 1
	B_ 1
	B_ 1
    rest 1
	B_ 1
	B_ 1
	B_ 1
	B_ 1
	B_ 1
	B_ 1
	B_ 1
	rest 1
	B_ 2
	octave 2
	E_ 2
	loopchannel 0, Music_GymLeaderBattle_Ch1
	


Music_GymLeaderBattle_Ch2::
	endchannel