Music_JigglypuffSong_Ch0::
	tempo 222
	volume 7, 7
	vibrato 8, 2, 4
	duty 2
	dutycycle 165
	notetype 13, 6, 7
	octave 2
	F_ 1
	G_ 1
	A_ 1
	A# 1
	rest 8
	G_ 1
	A_ 1
	B_ 1
	octave 3
	C_ 1
	rest 8
	octave 2
	G_ 1
	A_ 1
	B_ 1
	octave 3
	C_ 1
	rest 2
	octave 2
	G_ 1
	A_ 1
	B_ 1
	octave 3
	C_ 1
	rest 2
	octave 2
	F_ 1
	G_ 1
	A_ 1
	A# 1
	rest 8
	loopchannel 0, Music_JigglypuffSong_Ch0


Music_JigglypuffSong_Ch1::
	duty 0
	dutycycle 165
	notetype 13, 6, 7
	octave 2
	F_ 1
	G_ 1
	A_ 1
	A# 1
	rest 8
	G_ 1
	A_ 1
	B_ 1
	octave 3
	C_ 1
	rest 8
	octave 2
	G_ 1
	A_ 1
	B_ 1
	octave 3
	C_ 1
	rest 2
	octave 2
	G_ 1
	A_ 1
	B_ 1
	octave 3
	C_ 1
	rest 2
	octave 2
	F_ 1
	G_ 1
	A_ 1
	A# 1
	rest 8
	loopchannel 0, Music_JigglypuffSong_Ch1
	
Music_JigglypuffSong_Ch3::
	dspeed 11
	rest 6
	mutedsnare3 2
	rest 2
	mutedsnare3 2
	rest 2
	rest 6
	mutedsnare3 2
	rest 2
	mutedsnare3 2
	rest 2
	rest 18
	mutedsnare3 2
	rest 2
	mutedsnare3 2
	rest 2
	rest 8
	loopchannel 0, Music_JigglypuffSong_Ch3
	
