Music_Lavender_Ch0::
	endchannel
	


Music_Lavender_Ch1::
	tempo 170
	volume 7, 7
	vibrato 0, 3, 4
	duty 3
	notetype 12, 9, 1
	octave 3
	C_ 2
	A_ 2
	C_ 2
	A_ 2
	G_ 2
	A_ 2
	G_ 2
	A_ 2
	B_ 2
	A_ 2
	B_ 2
	A_ 2
	F# 2
	A_ 2
	F# 2
	A_ 2
	loopchannel 0, Music_Lavender_Ch1


Music_Lavender_Ch2::
	duty 1
	toggleperfectpitch
	vibrato 0, 8, 8
	notetype 12, 8, 7
	rest 16
	rest 16
	rest 16
	rest 16
	notetype 12, 10, 7
	octave 1
	B_ 4
	G_ 4
	F# 4
	B_ 4
	C_ 8
	C_ 8
	rest 16
	B_ 4
	G_ 4
	F# 4
	B_ 4
	C_ 8
	C_ 8
	rest 16
	B_ 4
	G_ 4
	F# 4
	B_ 4
	C_ 8
	C_ 8
	rest 16
	B_ 4
	G_ 4
	F# 4
	B_ 4
	C_ 8
	C_ 8
	rest 16
	loopchannel 0, Music_Lavender_Ch2


Music_Lavender_Ch3::
	dspeed 12
	mutedsnare2 4
	mutedsnare2 6
	mutedsnare2 2
	mutedsnare2 2
	mutedsnare2 2
	mutedsnare2 4
	mutedsnare2 2
	mutedsnare4 1
	mutedsnare4 1
	mutedsnare2 6
	mutedsnare4 1
	mutedsnare4 1
	mutedsnare2 4
	mutedsnare2 6
	mutedsnare2 2
	mutedsnare3 1
	mutedsnare3 1
	mutedsnare2 2
	mutedsnare2 2
	loopchannel 0, Music_Lavender_Ch3
	
Music_Lavender_Ch4::
   	unknownsfx0x10 90
	unknownsfx0x20 15, 241, 0, 3
	unknownsfx0x10 8
	rest 16
	rest 16
	rest 16
	rest 16
	loopchannel 0, Music_Lavender_Ch4
	

