Music_MeetProfOak_Ch0::
	tempo 112
	volume 7, 7
	duty 3
	endchannel


Music_MeetProfOak_Ch1::
	endchannel


Music_MeetProfOak_Ch2::
	duty 1
	toggleperfectpitch
	vibrato 0, 8, 8
	notetype 12, 8, 7
	rest 16
	rest 16
	rest 16
	rest 16
	notetype 12, 10, 7
	octave 1
	B_ 4
	G_ 4
	F# 4
	B_ 4
	G_ 4
	F# 4
	rest 16
	B_ 4
	G_ 4
	F# 4
	B_ 4
	G_ 4
	F# 4
	rest 16
	B_ 4
	G_ 4
	F# 4
	B_ 4
	G_ 4
	F# 4
	rest 16
	B_ 4
	G_ 4
	F# 4
	B_ 4
	G_ 4
	F# 4
	rest 16
	loopchannel 0, Music_MeetProfOak_Ch2

