Music_Routes2_Ch0::
	tempo 152
	volume 7, 7
	vibrato 9, 2, 5
	duty 1
    endchannel


Music_Routes2_Ch1::
	vibrato 8, 2, 6
	duty 3
    endchannel


Music_Routes2_Ch2::
	duty 1
	toggleperfectpitch
	vibrato 0, 8, 8
	notetype 12, 8, 7
	notetype 12, 10, 7
	octave 1
	A_ 4
	D_ 4
	E_ 4
	F_ 4
	A_ 2
	D_ 2
	E_ 2
	F_ 2
	rest 4
	A_ 4
	D_ 4
	E_ 4
	F_ 4
	A_ 2
	D_ 2
	E_ 2
	F_ 2
	rest 4
	A_ 4
	D_ 4
	E_ 4
	F_ 4
	A_ 2
	D_ 2
	E_ 2
	F_ 2
	rest 4
	vibrato 0, 12, 12
	octave 0
	F_ 2
	octave 1
	E_ 4
	F_ 2
	A_ 4
	vibrato 0, 12, 12
	octave 2
	F_ 2
	octave 3
	E_ 4
	F_ 2
	A_ 4
	rest 4
	vibrato 0, 12, 12
	octave 0
	F_ 2
	octave 1
	E_ 4
	F_ 2
	A_ 4
	vibrato 0, 12, 12
	octave 2
	F_ 2
	octave 3
	E_ 4
	F_ 2
	octave 4
	A_ 8
	rest 4
	loopchannel 0, Music_Routes2_Ch2
	


Music_Routes2_Ch3::
	endchannel