Music_TitleScreen_Ch0::
	tempo 144
	volume 7, 7
	vibrato 9, 3, 4
	duty 3
	notetype 12, 12, 1
	octave 1
	E_ 1
	G_ 1
	B_ 1
    notetype 12, 12, 1
	octave 2
	E_ 1
	G_ 1
	B_ 1
	notetype 12, 12, 1
	octave 1
	E_ 1
	G_ 1
	B_ 1
	notetype 12, 12, 1
	octave 2
	E_ 1
	G_ 1
	B_ 1
	notetype 12, 12, 1
	octave 1
	E_ 1
	G_ 1
	B_ 1
	notetype 12, 12, 1
	octave 2
	E_ 1
	G_ 1
	B_ 1
	notetype 12, 12, 1
	octave 1
	E_ 1
	G_ 1
	B_ 1
	notetype 12, 12, 1
	octave 2
	E_ 1
	G_ 1
	B_ 1
	notetype 12, 12, 1
	octave 1
	E_ 1
	G_ 1
	B_ 1
	loopchannel 0, Music_TitleScreen_Ch0

	



Music_TitleScreen_Ch1::


	endchannel
	
Music_TitleScreen_Ch2::
    endchannel




Music_TitleScreen_Ch3::
    dspeed 6
	rest 4
	snare1 1
	snare2 2 
	snare3 3
	rest 8
	loopchannel 0, Music_TitleScreen_Ch3
	