Music_WildBattle_Ch2::
	duty 1
	toggleperfectpitch
	vibrato 0, 8, 8
	notetype 12, 8, 7
	notetype 12, 10, 7
	tempo 226
	octave 1
	B_ 2
	A_ 2
	octave 2
	C_ 2
	duty 3
	notetype 12, 10, 7
	vibrato 11, 5, 5
	octave 1
	B_ 2
	A_ 2
	octave 2
	C_ 2
	notetype 12, 10, 7
	tempo 226
	octave 1
	B_ 2
	A_ 2
	octave 2
	C_ 2
	duty 3
	notetype 12, 10, 7
	vibrato 11, 5, 5
	octave 1
	B_ 2
	A_ 2
	octave 2
	C_ 2
	notetype 12, 10, 7
	tempo 226
	octave 1
	B_ 2
	A_ 2
	octave 2
	C_ 2
	duty 0
	notetype 12, 10, 7
	vibrato 11, 5, 5
	octave 1
	B_ 2
	A_ 2
	octave 2
	C_ 2
	notetype 12, 10, 7
	tempo 226
	octave 1
	B_ 2
	A_ 2
	octave 2
	C_ 2
	duty 1
	notetype 12, 10, 7
	vibrato 11, 5, 5
	octave 1
	B_ 2
	A_ 2
	octave 2
	D_ 2
	loopchannel 0, Music_WildBattle_Ch2


Music_WildBattle_Ch5:
	dutycycle 68
	unknownsfx0x20 6, 195, 201, 7
	unknownsfx0x20 6, 179, 199, 7
	unknownsfx0x20 10, 196, 195, 7
	unknownsfx0x20 8, 180, 199, 7
	unknownsfx0x20 6, 195, 201, 7
	unknownsfx0x20 15, 162, 197, 7
	loopchannel 0,Music_WildBattle_Ch5


Music_WildBattle_Ch7:
	unknownnoise0x20 13, 25, 124
	unknownnoise0x20 13, 247, 140
	unknownnoise0x20 12, 214, 124
	unknownnoise0x20 8, 196, 108
	unknownnoise0x20 15, 179, 92
	loopchannel 0,Music_WildBattle_Ch7